
<svg height="512pt" viewBox="0 0 512 512" width="512pt" xmlns="http://www.w3.org/2000/svg"><path d="m192.265625 8.027344c-89.882813 23.144531-161.09375 94.351562-184.238281 184.234375l29.0625 7.472656c20.40625-79.292969 83.355468-142.242187 162.644531-162.644531zm0 0"/><path d="m474.910156 199.734375 29.0625-7.472656c-23.144531-89.882813-94.355468-161.089844-184.238281-184.234375l-7.46875 29.0625c79.292969 20.402344 142.238281 83.351562 162.644531 162.644531zm0 0"/><path d="m319.734375 503.957031c89.882813-23.132812 161.09375-94.324219 184.238281-184.222656l-29.0625-7.472656c-20.40625 79.308593-83.355468 142.242187-162.648437 162.632812zm0 0"/><path d="m37.089844 312.261719-29.0625 7.472656c23.144531 89.898437 94.355468 161.09375 184.238281 184.222656l7.46875-29.0625c-79.292969-20.390625-142.238281-83.324219-162.644531-162.632812zm0 0"/><path d="m256 210.996094c-24.8125 0-45 20.1875-45 45 0 24.816406 20.1875 45 45 45s45-20.183594 45-45c0-24.8125-20.1875-45-45-45zm15 60h-30v-30h30zm0 0"/><path d="m256 0-57.613281 198.386719-198.386719 57.609375 198.386719 57.601562 57.613281 198.402344 57.613281-198.402344 198.386719-57.601562-198.386719-57.609375zm0 330.996094c-41.351562 0-75-33.644532-75-75 0-41.351563 33.648438-75 75-75s75 33.648437 75 75c0 41.355468-33.648438 75-75 75zm0 0"/><path d="m369.097656 183.339844 40.449219-80.886719-80.890625 40.4375 9.140625 31.3125zm0 0"/><path d="m337.796875 337.796875-9.136719 31.304687 80.886719 40.441407-40.449219-80.882813zm0 0"/><path d="m142.902344 328.660156-40.449219 80.882813 80.886719-40.445313-9.136719-31.300781zm0 0"/><path d="m174.203125 174.203125 9.140625-31.3125-80.890625-40.4375 40.449219 80.886719zm0 0"/></svg>